# xmcd
#
# Track frame offsets:
#	150
#	18699
#	39930
#	56379
#	91873
#	117291
#	128473
#	138623
#	152974
#	165076
#	176364
#	193790
#	211603
#	236614
#	258540
#
# Disc length: 3702 seconds
#
# Revision: 0
# Processed by: cddbd v1.5.2PL0 Copyright (c) Steve Scherf et al.
# Submitted via: audiograbber 1.83.01
#
DISCID=bc0e740f
DTITLE=Half Past Midnight - Nightlicks
DYEAR=1997
DGENRE=Blues
TTITLE0=Honky James
TTITLE1=Hoochie Coochie Woman
TTITLE2=Indian Machine
TTITLE3=Mean Black Snake
TTITLE4=Voodoo Chile
TTITLE5=Nightlicks
TTITLE6=Can You See Me
TTITLE7=Something Ain't Right
TTITLE8=Rock Me Baby
TTITLE9=Cous Cous Blues
TTITLE10=The Way It Is
TTITLE11=You Can't Wait
TTITLE12=Can't Find My Way
TTITLE13=Lets Work Together
TTITLE14=Parchman Farm
EXTD=
EXTT0=
EXTT1=
EXTT2=
EXTT3=
EXTT4=
EXTT5=
EXTT6=
EXTT7=
EXTT8=
EXTT9=
EXTT10=
EXTT11=
EXTT12=
EXTT13=
EXTT14=
PLAYORDER=
